<?xml version="1.0" encoding="utf-8"?>
<!-- Generator: Adobe Illustrator 16.0.0, SVG Export Plug-In . SVG Version: 6.00 Build 0)  -->
<!DOCTYPE svg PUBLIC "-//W3C//DTD SVG 1.1//EN" "http://www.w3.org/Graphics/SVG/1.1/DTD/svg11.dtd">
<svg version="1.1" id="Layer_1" xmlns="http://www.w3.org/2000/svg" xmlns:xlink="http://www.w3.org/1999/xlink" x="0px" y="0px"
	 width="322.233px" height="665.284px" viewBox="338.722 168.026 322.233 665.284"
	 enable-background="new 338.722 168.026 322.233 665.284" xml:space="preserve">
<path fill="#47C0FA" d="M338.722,416.146c0-16.369,0-32.745,0-49.12c0.501-0.211,1.433-0.404,1.433-0.628
	c0.097-3.196,0.097-6.393,0.012-9.577c-0.012-0.224-0.942-0.411-1.443-0.622c0-16.37,0-32.746,0-49.121
	c0.272-0.423,0.768-0.852,0.768-1.27c0.012-8.514,0-17.027-0.097-25.536c-0.012-1.062-0.435-2.121-0.671-3.172
	c0-8.605,0-17.209,0-25.809c0.236-1.474,0.659-2.954,0.671-4.422c0.066-7.904-0.193-15.819,0.072-23.711
	c0.205-5.668,0.556-11.415,1.747-16.919c3.957-18.46,14.677-31.046,33.155-36.382c2.514-0.726,11.715-1.831,16.298-1.831
	c73.477,0,146.945,0,220.417,0c4.333,0,8.348,0.961,10.08,1.378c16.885,4.108,28.021,14.465,33.507,30.901
	c2.206,6.628,3.179,13.445,3.179,20.442c-0.029,27.312,0.025,54.619-0.061,81.943c0,2.737,0.423,4.907,3.167,6.055
	c0,15.263,0,30.522,0,45.791c-2.412,1.136-3.481,2.955-3.148,5.668c0.175,1.359,0.029,2.767,0.029,4.151
	c0,134.022-0.006,278.047,0.038,412.072c0,6.543-0.255,13.039-1.819,19.409c-4.521,18.382-15.48,30.659-34.062,35.565
	c-3.065,0.804-6.213,1.281-9.331,1.908c-76.046,0-152.091,0-228.143,0c-1.063-0.229-2.134-0.531-3.216-0.676
	c-19.734-2.725-34.182-15.36-39.36-34.582c-1.892-6.998-2.567-14.157-2.562-21.396c0.042-42.16,0.055-84.312,0.055-126.472
	c0.006-72.801,0.006-155.604-0.03-228.408C339.404,419.905,338.958,418.026,338.722,416.146z M345.701,504.822h-0.012
	c0,90.474-0.03,180.942,0.071,271.42c0,5.914,0.586,11.916,1.741,17.709c2.333,11.802,8.314,21.393,19.016,27.48
	c7.258,4.122,15.259,5.753,23.536,5.741c46.624-0.062,93.243-0.212,139.867-0.312c24.013-0.057,48.009-0.006,72.021-0.104
	c4.145-0.018,8.312-0.253,12.429-0.749c18.859-2.276,31.26-13.591,34.957-32.14c1.045-5.281,1.564-10.727,1.654-16.104
	c0.207-14.979,0.042-29.971,0.042-44.957c0.008-166.666,0.03-343.32-0.061-509.974c-0.006-5.765-0.694-11.692-2.097-17.281
	c-4.084-16.303-14.382-26.582-31.137-29.706c-4.345-0.81-8.804-1.208-13.223-1.238c-29.281-0.2-58.57-0.284-87.841-0.339
	c-42.322-0.078-84.644-0.151-126.972-0.042c-4.646,0.012-9.415,0.731-13.916,1.892c-12.459,3.202-21.421,10.58-26.142,22.841
	c-2.778,7.227-3.896,14.731-3.902,22.357C345.671,312.492,345.701,413.657,345.701,504.822z"/>
<path fill="#47C0FA" d="M523.788,782.119c-0.121,14.02-11.498,24.932-25.839,24.764c-13.771-0.157-24.671-11.522-24.558-25.613
	c0.109-13.982,11.542-24.944,25.833-24.771C512.983,756.651,523.902,768.035,523.788,782.119z M498.723,803.089
	c12.666-0.63,21.174-9.953,21.203-21.748c0.029-11.519-10.048-21.161-21.475-21.053c-11.645,0.109-21.524,10.213-21.265,21.749
	C477.447,793.56,487.291,803.189,498.723,803.089z"/>
<path fill="#47C0FA" d="M498.65,221.54c-6.918,0-13.83,0.025-20.737-0.012c-3.698-0.012-5.306-1.093-5.19-3.275
	c0.103-2.024,1.596-2.979,5.081-2.979c14.104-0.024,28.201-0.012,42.317-0.012c0.549,0,1.105,0.006,1.648,0.043
	c1.909,0.132,3.189,1.039,3.228,3.045c0.043,2.024-1.208,3.015-3.118,3.129c-1.655,0.091-3.316,0.061-4.973,0.061
	C510.814,221.54,504.736,221.54,498.65,221.54z"/>
<circle fill="#47C0FA" cx="447.865" cy="218.403" r="5.355"/>
<circle fill="#47C0FA" cx="498.857" cy="198.402" r="2.935"/>
</svg>
