<?xml version="1.0" encoding="utf-8"?>
<!-- Generator: Adobe Illustrator 16.0.0, SVG Export Plug-In . SVG Version: 6.00 Build 0)  -->
<!DOCTYPE svg PUBLIC "-//W3C//DTD SVG 1.1//EN" "http://www.w3.org/Graphics/SVG/1.1/DTD/svg11.dtd">
<svg version="1.1" id="Layer_1" xmlns="http://www.w3.org/2000/svg" xmlns:xlink="http://www.w3.org/1999/xlink" x="0px" y="0px"
	 width="16.981px" height="20.001px" viewBox="491.506 489.999 16.981 20.001"
	 enable-background="new 491.506 489.999 16.981 20.001" xml:space="preserve">
<g>
	<g>
		<path fill="#B8E6FC" d="M504.934,491.048c-1.341,0.935-3.029,3.149-3.264,8.456c-0.232,4.84-1.689,8.164-3.554,10.438
			c0.232,0,0.466,0.058,0.699,0.058c3.611,0,7.282-2.856,8.913-7.172C509.419,498.104,508.195,493.206,504.934,491.048z
			 M501.787,489.999h-0.583c-3.612,0-7.283,2.799-8.914,7.173c-1.748,4.725-0.466,9.622,2.797,11.779
			c1.806-1.866,3.438-4.782,3.612-9.506C498.99,494.547,500.271,491.689,501.787,489.999z"/>
	</g>
</g>
</svg>
