<svg fill="none" height="1467" viewBox="0 0 725 1467" width="725" xmlns="http://www.w3.org/2000/svg"><path clip-rule="evenodd" d="m16.3353 56.785c-11.3353 22.2468-11.3353 51.37-11.3353 109.615v65.6h-3c-1.104569 0-2 .895-2 2v54c0 1.105.89543 2 2 2h3v47h-3c-1.104569 0-2 .895-2 2v108c0 1.105.89543 2 2 2h3v25h-3c-1.104569 0-2 .895-2 2v108c0 1.105.89543 2 2 2h3v714.6c0 58.25 0 87.37 11.3353 109.61 9.9709 19.57 25.8808 35.48 45.4497 45.45 22.2468 11.34 51.37 11.34 109.615 11.34h382.2c58.245 0 87.368 0 109.615-11.34 19.569-9.97 35.479-25.88 45.45-45.45 11.335-22.24 11.335-51.36 11.335-109.61v-749.6h3c1.105 0 2-.895 2-2v-170c0-1.105-.895-2-2-2h-3v-210.6c0-58.245 0-87.3682-11.335-109.615-9.971-19.5689-25.881-35.4788-45.45-45.4497-22.247-11.3353-51.37-11.3353-109.615-11.3353h-382.2c-58.245 0-87.3682 0-109.615 11.3353-19.5689 9.9709-35.4788 25.8808-45.4497 45.4497zm7.2371 4.1779c-10.5724 20.7495-10.5724 47.9121-10.5724 102.2371v1140.6c0 54.33 0 81.49 10.5724 102.24 9.2997 18.25 24.1388 33.09 42.3905 42.39 20.7495 10.57 47.9121 10.57 102.2371 10.57h388.6c54.325 0 81.488 0 102.237-10.57 18.252-9.3 33.091-24.14 42.391-42.39 10.572-20.75 10.572-47.91 10.572-102.24v-1140.6c0-54.325 0-81.4876-10.572-102.2371-9.3-18.2517-24.139-33.0908-42.391-42.3905-20.749-10.5724-47.912-10.5724-102.237-10.5724h-388.6c-54.325 0-81.4876 0-102.2371 10.5724-18.2517 9.2997-33.0908 24.1388-42.3905 42.3905zm300.4276-5.9629c0-3.866 3.134-7 7-7h64c3.866 0 7 3.134 7 7s-3.134 7-7 7h-64c-3.866 0-7-3.134-7-7zm108-14c-7.732 0-14 6.268-14 14s6.268 14 14 14 14-6.268 14-14-6.268-14-14-14z" fill="#fff" fill-rule="evenodd"/></svg>