<?xml version="1.0" encoding="utf-8"?>
<!-- Generator: Adobe Illustrator 17.0.0, SVG Export Plug-In . SVG Version: 6.00 Build 0)  -->
<!DOCTYPE svg PUBLIC "-//W3C//DTD SVG 1.1//EN" "http://www.w3.org/Graphics/SVG/1.1/DTD/svg11.dtd">
<svg version="1.1" id="Слой_1" xmlns="http://www.w3.org/2000/svg" xmlns:xlink="http://www.w3.org/1999/xlink" x="0px" y="0px"
	 width="961.468px" height="680.016px" viewBox="0 0 961.468 680.016" enable-background="new 0 0 961.468 680.016"
	 xml:space="preserve">
<g>
	<g>
		<path fill="#9AC7E2" d="M44.856,335.387c-2.871,0-5.198,2.327-5.198,5.198s2.328,5.198,5.198,5.198
			c2.871,0,5.198-2.327,5.198-5.198S47.727,335.387,44.856,335.387z M915.01,0H46.458C13.856,0,0,16.748,0,47.682v587.635
			c0,32.441,18.798,44.699,46.233,44.699h869.002c27.435,0,46.233-12.258,46.233-44.699V47.682C961.468,16.748,947.611,0,915.01,0z
			 M956.462,635.702c0,13.653-3.819,23.92-11.352,30.518c-6.951,6.088-17.003,9.176-29.875,9.176H46.233
			c-12.922,0-22.985-3.076-29.91-9.141c-3.669-3.214-6.492-7.432-8.391-12.538c-1.942-5.224-2.927-11.398-2.927-18.351V48.067
			c0-14.288,3.232-24.687,9.882-31.79c3.56-3.803,7.553-6.441,12.208-8.065c5.363-1.872,11.877-2.821,19.363-2.821H915.01
			c7.485,0,14.001,0.949,19.364,2.821c5.027,1.755,9.212,4.39,12.437,7.835c6.495,6.938,9.652,17.412,9.652,32.02V635.702z
			 M920.848,318.83c-11.803,0-21.37,9.568-21.37,21.371s9.568,21.371,21.37,21.371c11.802,0,21.37-9.568,21.37-21.371
			S932.65,318.83,920.848,318.83z M920.848,358.491c-10.085,0-18.29-8.205-18.29-18.29c0-10.085,8.205-18.291,18.29-18.291
			s18.29,8.205,18.29,18.291C939.137,350.286,930.933,358.491,920.848,358.491z"/>
	</g>
</g>
</svg>
