<?xml version="1.0" encoding="utf-8"?>
<!-- Generator: Adobe Illustrator 16.0.0, SVG Export Plug-In . SVG Version: 6.00 Build 0)  -->
<!DOCTYPE svg PUBLIC "-//W3C//DTD SVG 1.1//EN" "http://www.w3.org/Graphics/SVG/1.1/DTD/svg11.dtd">
<svg version="1.1" id="Layer_1" xmlns="http://www.w3.org/2000/svg" xmlns:xlink="http://www.w3.org/1999/xlink" x="0px" y="0px"
	 width="39px" height="39px" viewBox="456.5 481 39 39" enable-background="new 456.5 481 39 39" xml:space="preserve">
<path fill="none" stroke="#343334" stroke-miterlimit="10" d="M459,481.5h34c1.104,0,2,0.896,2,2v34c0,1.104-0.896,2-2,2h-34
	c-1.104,0-2-0.896-2-2v-34C457,482.396,457.896,481.5,459,481.5z"/>
<path fill="#565256" d="M480.745,497.44h-3.479v-2.538c0-0.779,0.807-0.959,1.183-0.959c0.373,0,2.247,0,2.247,0v-3.426
	l-2.575-0.014c-3.514,0-4.315,2.554-4.315,4.192v2.745h-2.549v3.528h2.549c0,4.531,0,9.529,0,9.529h3.462c0,0,0-5.049,0-9.529h2.941
	L480.745,497.44z"/>
</svg>
