<?xml version="1.0" encoding="utf-8"?>
<!-- Generator: Adobe Illustrator 16.0.0, SVG Export Plug-In . SVG Version: 6.00 Build 0)  -->
<!DOCTYPE svg PUBLIC "-//W3C//DTD SVG 1.1//EN" "http://www.w3.org/Graphics/SVG/1.1/DTD/svg11.dtd">
<svg version="1.1" id="Layer_1" xmlns="http://www.w3.org/2000/svg" xmlns:xlink="http://www.w3.org/1999/xlink" x="0px" y="0px"
	 width="39px" height="39px" viewBox="504.5 481 39 39" enable-background="new 504.5 481 39 39" xml:space="preserve">
<path fill="none" stroke="#343334" stroke-miterlimit="10" d="M507,481.5h34c1.104,0,2,0.896,2,2v34c0,1.104-0.896,2-2,2h-34
	c-1.104,0-2-0.896-2-2v-34C505,482.396,505.896,481.5,507,481.5z"/>
<path fill="#565256" d="M535,493.854c-0.337,0.2-1.348,0.6-2.29,0.699c0.604-0.351,1.499-1.5,1.72-2.413
	c-0.58,0.399-1.915,0.981-2.573,0.981c0,0,0,0.002,0.002,0.003c-0.753-0.847-1.811-1.374-2.984-1.374
	c-2.277,0-4.125,1.989-4.125,4.444c0,0.34,0.037,0.671,0.104,0.989h-0.002c-3.09-0.085-6.702-1.754-8.739-4.608
	c-1.25,2.332-0.168,4.925,1.252,5.87c-0.484,0.041-1.381-0.061-1.802-0.5c-0.029,1.547,0.662,3.597,3.183,4.341
	c-0.486,0.281-1.344,0.201-1.718,0.139c0.132,1.31,1.831,3.019,3.688,3.019c-0.661,0.822-2.919,2.319-5.714,1.844
	c1.898,1.245,4.111,1.965,6.453,1.965c6.657,0,11.826-5.809,11.549-12.975c0-0.01-0.002-0.019-0.002-0.025
	c0-0.02,0.002-0.039,0.002-0.056c0-0.022-0.002-0.044-0.002-0.067C533.604,495.682,534.418,494.894,535,493.854z"/>
</svg>
