<?xml version="1.0" encoding="utf-8"?>
<!-- Generator: Adobe Illustrator 16.0.0, SVG Export Plug-In . SVG Version: 6.00 Build 0)  -->
<!DOCTYPE svg PUBLIC "-//W3C//DTD SVG 1.1//EN" "http://www.w3.org/Graphics/SVG/1.1/DTD/svg11.dtd">
<svg version="1.1" id="Layer_1" xmlns="http://www.w3.org/2000/svg" xmlns:xlink="http://www.w3.org/1999/xlink" x="0px" y="0px"
	 width="31.312px" height="31.312px" viewBox="4.498 4.344 31.312 31.312" enable-background="new 4.498 4.344 31.312 31.312"
	 xml:space="preserve">
<g>
	<path fill="#FFFFFF" d="M20.153,28.656c-4.771,0-8.654-3.883-8.654-8.656c0-4.773,3.884-8.656,8.654-8.656
		c4.774,0,8.657,3.883,8.657,8.656C28.81,24.773,24.927,28.656,20.153,28.656z"/>
	<path fill="#E36639" d="M20.153,13.344c3.671,0,6.657,2.986,6.657,6.656s-2.985,6.656-6.657,6.656c-3.67,0-6.654-2.986-6.654-6.656
		S16.482,13.344,20.153,13.344 M20.153,9.344C14.268,9.344,9.498,14.115,9.498,20c0,5.886,4.771,10.656,10.654,10.656
		c5.888,0,10.657-4.771,10.657-10.656S26.036,9.344,20.153,9.344L20.153,9.344z"/>
	<path fill="#FFFFFF" d="M20.153,9.344C26.04,9.344,30.81,14.115,30.81,20c0,5.886-4.771,10.656-10.657,10.656
		c-5.885,0-10.654-4.771-10.654-10.656S14.268,9.344,20.153,9.344 M20.153,4.344C11.52,4.344,4.498,11.367,4.498,20
		s7.021,15.656,15.654,15.656c8.634,0,15.657-7.023,15.657-15.656S28.784,4.344,20.153,4.344L20.153,4.344z"/>
</g>
</svg>
