<?xml version="1.0" encoding="utf-8"?>
<!-- Generator: Adobe Illustrator 16.0.0, SVG Export Plug-In . SVG Version: 6.00 Build 0)  -->
<!DOCTYPE svg PUBLIC "-//W3C//DTD SVG 1.1//EN" "http://www.w3.org/Graphics/SVG/1.1/DTD/svg11.dtd">
<svg version="1.1" id="Layer_1" xmlns="http://www.w3.org/2000/svg" xmlns:xlink="http://www.w3.org/1999/xlink" x="0px" y="0px"
	 width="361.463px" height="748.284px" viewBox="282.394 115 361.463 748.284" enable-background="new 282.394 115 361.463 748.284"
	 xml:space="preserve">
<g>
	<path fill="#FFFFFF" d="M282.394,394.075c0-18.411,0-36.83,0-55.249c0.562-0.237,1.606-0.455,1.606-0.707
		c0.109-3.594,0.109-7.19,0.013-10.772c-0.013-0.251-1.057-0.462-1.619-0.699c0-18.412,0-36.831,0-55.249
		c0.305-0.476,0.86-0.958,0.86-1.428c0.014-9.576,0-19.151-0.108-28.721c-0.014-1.195-0.487-2.385-0.752-3.567
		c0-9.679,0-19.357,0-29.029c0.265-1.657,0.739-3.323,0.752-4.974c0.075-8.89-0.217-17.792,0.081-26.669
		c0.23-6.375,0.624-12.838,1.959-19.03c4.438-20.763,16.464-34.919,37.191-40.921c2.82-0.816,13.141-2.06,18.282-2.06
		c82.423,0,164.835,0,247.253,0c4.861,0,9.364,1.082,11.308,1.55c18.94,4.621,31.433,16.27,37.586,34.757
		c2.477,7.456,3.566,15.122,3.566,22.992c-0.034,30.72,0.028,61.433-0.068,92.166c0,3.079,0.476,5.52,3.554,6.81
		c0,17.167,0,34.33,0,51.503c-2.706,1.277-3.905,3.324-3.532,6.375c0.194,1.529,0.033,3.112,0.033,4.67
		c0,150.743-0.008,312.735,0.043,463.481c0,7.359-0.286,14.666-2.041,21.83c-5.07,20.676-17.366,34.484-38.209,40.003
		c-3.438,0.903-6.97,1.441-10.468,2.146c-85.305,0-170.607,0-255.919,0c-1.192-0.258-2.393-0.599-3.605-0.76
		c-22.138-3.064-38.344-17.277-44.154-38.896c-2.121-7.871-2.88-15.923-2.874-24.065c0.047-47.421,0.061-94.832,0.061-142.25
		c0.007-81.883,0.007-175.016-0.034-256.903C283.159,398.302,282.659,396.189,282.394,394.075z M290.222,493.812h-0.013
		c0,101.763-0.033,203.519,0.081,305.281c0,6.651,0.658,13.402,1.953,19.919c2.617,13.274,9.327,24.062,21.331,30.91
		c8.14,4.636,17.115,6.47,26.4,6.457c52.302-0.068,104.597-0.238,156.896-0.352c26.936-0.063,53.854-0.008,80.791-0.119
		c4.647-0.021,9.325-0.283,13.94-0.842c21.156-2.562,35.066-15.286,39.215-36.149c1.172-5.94,1.756-12.062,1.854-18.113
		c0.232-16.847,0.047-33.709,0.047-50.564c0.009-187.459,0.035-386.151-0.065-573.597c-0.008-6.484-0.779-13.151-2.354-19.437
		c-4.581-18.337-16.133-29.898-34.928-33.412c-4.872-0.911-9.874-1.359-14.831-1.393c-32.847-0.225-65.701-0.32-98.536-0.382
		c-47.475-0.087-94.949-0.17-142.432-0.047c-5.212,0.014-10.562,0.823-15.609,2.128c-13.977,3.601-24.03,11.9-29.324,25.69
		c-3.118,8.128-4.372,16.569-4.378,25.146C290.189,277.488,290.222,391.274,290.222,493.812z"/>
	<path fill="#EFEFEF" d="M489.992,805.704c-0.136,15.77-12.898,28.043-28.985,27.854c-15.448-0.177-27.675-12.962-27.547-28.809
		c0.122-15.729,12.947-28.058,28.978-27.861C477.872,777.061,490.12,789.864,489.992,805.704z M461.875,829.292
		c14.208-0.71,23.75-11.195,23.785-24.461c0.033-12.958-11.271-23.803-24.089-23.68c-13.062,0.122-24.146,11.486-23.854,24.461
		C438.009,818.574,449.051,829.403,461.875,829.292z"/>
	<path fill="#FFFFFF" d="M461.793,175.188c-7.76,0-15.514,0.029-23.262-0.014c-4.148-0.013-5.952-1.229-5.822-3.683
		c0.114-2.276,1.789-3.35,5.7-3.35c15.821-0.027,31.634-0.014,47.469-0.014c0.616,0,1.241,0.007,1.851,0.048
		c2.143,0.149,3.578,1.168,3.619,3.425c0.049,2.276-1.354,3.391-3.498,3.52c-1.856,0.103-3.72,0.068-5.577,0.068
		C475.439,175.188,468.621,175.188,461.793,175.188z"/>
	<ellipse fill="#FFFFFF" cx="404.825" cy="171.661" rx="6.007" ry="6.023"/>
	<ellipse fill="#FFFFFF" cx="462.025" cy="149.165" rx="3.293" ry="3.302"/>
</g>
</svg>
