<?xml version="1.0" encoding="utf-8"?>
<!-- Generator: Adobe Illustrator 16.0.0, SVG Export Plug-In . SVG Version: 6.00 Build 0)  -->
<!DOCTYPE svg PUBLIC "-//W3C//DTD SVG 1.1//EN" "http://www.w3.org/Graphics/SVG/1.1/DTD/svg11.dtd">
<svg version="1.1" id="Layer_1" xmlns="http://www.w3.org/2000/svg" xmlns:xlink="http://www.w3.org/1999/xlink" x="0px" y="0px"
	 width="34.991px" height="36.283px" viewBox="486.505 474.727 34.991 36.283"
	 enable-background="new 486.505 474.727 34.991 36.283" xml:space="preserve">
<path fill="#99CDCB" d="M515.25,490.993h-10.705v0.004h-18.04v6.791c0,7.303,6.053,13.222,13.521,13.222
	c5.487,0,10.203-3.205,12.321-7.801h2.903c3.443,0,6.246-2.739,6.246-6.107C521.497,493.732,518.694,490.993,515.25,490.993z
	 M515.25,499.995h-1.909c0.124-0.72,0.204-1.453,0.204-2.207v-3.58h1.705c1.632,0,2.958,1.298,2.958,2.894
	C518.208,498.696,516.882,499.995,515.25,499.995z"/>
<g>
	<path fill="#99CDCB" d="M503.643,486.874c-1.598-1.594-1.803-3.865-0.51-5.652c1.743-2.407,0.483-4.77-0.536-5.787l0.705-0.708
		c1.668,1.663,2.513,4.497,0.642,7.081c-1.01,1.395-0.851,3.105,0.406,4.357L503.643,486.874z"/>
</g>
<g>
	<path fill="#99CDCB" d="M499.643,486.874c-1.598-1.594-1.803-3.865-0.51-5.652c1.743-2.407,0.483-4.77-0.537-5.787l0.706-0.708
		c1.667,1.663,2.512,4.497,0.641,7.081c-1.009,1.395-0.85,3.105,0.406,4.357L499.643,486.874z"/>
</g>
<g>
	<path fill="#99CDCB" d="M495.643,486.874c-1.598-1.594-1.803-3.865-0.51-5.652c1.744-2.407,0.483-4.77-0.537-5.787l0.706-0.708
		c1.667,1.663,2.512,4.497,0.641,7.081c-1.009,1.395-0.85,3.105,0.406,4.357L495.643,486.874z"/>
</g>
</svg>
