<?xml version="1.0" encoding="utf-8"?>
<!-- Generator: Adobe Illustrator 16.0.0, SVG Export Plug-In . SVG Version: 6.00 Build 0)  -->
<!DOCTYPE svg PUBLIC "-//W3C//DTD SVG 1.1//EN" "http://www.w3.org/Graphics/SVG/1.1/DTD/svg11.dtd">
<svg version="1.1" id="Layer_1" xmlns="http://www.w3.org/2000/svg" xmlns:xlink="http://www.w3.org/1999/xlink" x="0px" y="0px"
	 width="12.977px" height="15.001px" viewBox="499.887 488.5 12.977 15.001" enable-background="new 499.887 488.5 12.977 15.001"
	 xml:space="preserve">
<g>
	<g>
		<path fill="#98CCCA" d="M510.146,489.288c-1.023,0.699-2.314,2.361-2.493,6.341c-0.179,3.629-1.291,6.124-2.716,7.829
			c0.178,0,0.354,0.043,0.534,0.043c2.762,0,5.565-2.143,6.812-5.378C513.576,494.58,512.641,490.906,510.146,489.288z
			 M507.743,488.5h-0.446c-2.761,0-5.564,2.101-6.812,5.38c-1.336,3.542-0.356,7.216,2.138,8.833
			c1.38-1.397,2.627-3.586,2.761-7.128C505.605,491.911,506.585,489.768,507.743,488.5z"/>
	</g>
</g>
</svg>
