<?xml version="1.0" encoding="utf-8"?>
<!-- Generator: Adobe Illustrator 16.0.0, SVG Export Plug-In . SVG Version: 6.00 Build 0)  -->
<!DOCTYPE svg PUBLIC "-//W3C//DTD SVG 1.1//EN" "http://www.w3.org/Graphics/SVG/1.1/DTD/svg11.dtd">
<svg version="1.1" id="Layer_1" xmlns="http://www.w3.org/2000/svg" xmlns:xlink="http://www.w3.org/1999/xlink" x="0px" y="0px"
	 width="362.279px" height="115.167px" viewBox="1 7.5 362.279 115.167" enable-background="new 1 7.5 362.279 115.167"
	 xml:space="preserve">
<g>
	<g>
		<path d="M245.604,64.69c5.696-2.019-2.041-9.065,5.101-9.885c1.026-1.251,2.415-4.579,0.276-5.307
			c-4.726,1.839-8.291-0.792-10.127,4.07C239.757,56.472,240.271,62.239,245.604,64.69z"/>
		<path d="M170.749,71c-2.99-1.6-7.553-1.555-9.381-1.611c-0.46,17.913-8.082,28.627-12.682,25.933
			c-5.401-3.166,1.988-14.662,1.78-24.676c-1.24-1.772-6.091-2.375-8.777-1.428c-2.406,0.849,2.238,0.323,0.093,8.176
			c-5.214,19.075-0.024,22.969,4.233,24.361c8.173,2.676,15.581-7.529,16.281-11.699c1.543,7.547,5.467,10.857,9.881,10.359
			C172.501,98.544,162.614,94.026,170.749,71z"/>
		<path d="M339.28,66.763c-6.908,5.121-15.354,12.085-21.729,15.255c-9.771,4.854-18.903,1.438-20.145-4.611
			c-0.898-4.391,3.926-4.736,6.735-3.856c2.926,0.914,4.302,4.859,4.375,8.439c0.032,1.524,3.435,0.771,4.126-1.353
			c-0.25-8.564-5.022-12.181-10.14-12.688c-7.905-0.788-14.51,4.709-16.53,11.909c-1.789,6.389-2.033,13.986,4.82,18.475
			c8.118,5.312,19.52-0.03,21.345-10.575c15.604-4.28,17.739-7.466,27.002-11.553c5.666-2.5,16-2.778,17.282,8.803
			c0.163,1.464,4.491,2.193,5.417,0.714C366.547,78.213,359.89,51.485,339.28,66.763z M292.704,79.058
			c1.444,4.961,8.164,9.77,14.771,8.836C302.961,100.173,284.516,94.156,292.704,79.058z"/>
		<path d="M282.677,70.776c-2.188-1.553-4.418-1.762-6.798-1.752c-3.757,2.558-6.898,10.431-10.125,22.383
			c-3.467-2.928-1.958-15.612-1.789-17.535c0.184-2.116-0.554-4.002-1.367-4.332c-0.955-0.39-4.048-1.24-5.646,0.195
			c-1.217,1.037-1.457,4.995-1.752,7.142c-1.289,9.384-6.006,18.405-9.295,17.253c-1.594-1.02-1.961-12.084,1.025-23.318
			c-2.476-1.271-6.503-2.898-9.205-0.756c-1.164,7.115-7.42,24.384-11.769,23.852c-3.736-2.927,3.371-22.378,0.396-25.481
			c-6.203-1.417-9.354,5.817-10.363,8.035c-5.444,11.977-7.151,17.473-8.053,16.1c-1.724-2.637,9.36-61.235,11.102-65.582
			c-1.876-2.438-4.776-3.771-9.12-2.935c-0.158,3.041-6.267,47.699-8.349,59.933c-0.273,1.621-0.568,3.106-1.104,5.164
			c-1.884,7.271-21.368,10.545-21.646-0.803c-0.372-15.247,9.838-16.128,12.695-15.372c4.744,1.257,2.807,8.253,0.115,7.188
			c-2.836-1.123-4.699,1.598-3.799,3.557c1.58,3.446,11.387,3.021,11.619-8.335c0.068-3.283-1.635-6.144-5.295-7.255
			c-4.413-1.342-18.747-1.107-21.9,16.014c-2.526,13.717,6.96,16.971,13.018,17.271c7.586,0.376,13.215-3.024,15.617-6.786
			c0.454,3.542,1.997,6.479,5.867,6.916c5.57,0.629,11.952-17.673,13.025-22.106c-1.312,7.146-0.707,14.301-0.268,16.447
			c1.555,7.605,8.723,4.154,9.944,3.467c7.06-3.972,9.786-14.583,10.412-14.35c-1.017,10.488,3.241,17.959,9.706,14.64
			c3.01-1.546,5.341-6.993,7.509-11.489c0.588,3.832,3.208,10.677,8.92,11.146c5.847,0.479,6.688-19.098,9.933-18.704
			c-1.207,7.604,0.42,15.513,4.502,18.343c2.062,1.432,5.074,1.004,5.457,0.324C275.542,90.521,283.727,71.521,282.677,70.776z"/>
		<path d="M136.855,83.295c-0.473-10.491-11.126-18.494-29.672-13.916c-2.681,0.662-4.995,1.474-6.971,2.373
			c-5.074-3.39-12.986-4.783-23.727-2.587c5.958-35.977,10.837-56.238,11.023-56.475c0.417-0.535,1.354-3.712,0.268-4.882
			c0,0-8.657-0.927-12.053,0.434L75.01,8.721c-0.612,1.145-0.791,5.063-2.484,12.266C65.076,52.661,44.48,95.716,25.207,95.44
			C7.542,95.187,9.545,54.508,31.809,55.152c11.455,0.332,7.425,13.625,3.666,15.533c0,0,0.637,3.44,6.953,3.078
			c0.686-0.039,1.872,0.404,3.491-2.127c3.006-4.694,6.156-23.509-11.64-24.955C11.247,44.809,0.96,62.674,1,74.771
			c0.039,11.633,7.076,25.436,22.628,26.726c16.068,1.334,32.834-19.199,45.582-51.261c0.762-1.913,2.514-7.034,3.056-8.562
			c0.396-1.115-0.147-2.789,1.596-2.684c-1.108,9.961-3.081,21.138-5.042,31.73c-14.745,5.646-11.292,13.014-7.481,13.008
			c2.078-0.002,2.701-1.023,2.701-1.023s-2.151-3.51,3.762-5.098c-0.281,5.537-3.615,21.168-2.945,21.963
			c0.23,0.271,6.014,1.271,7.739,0.092c1.212-0.829,0.365-2.859,0.358-4.613c-0.003-0.495,1.63-12.513,2.493-17.845
			c-2.185,0.09-1.396-2.429,5.867-3.103c6.033-0.561,10.206,0.062,13.04,1.334c-4.853,4.301-4.268,8.836-0.017,9.188
			c1.861,0.152,2.641-1.049,2.641-1.049s-1.732-2.028,1.523-4.727c1.179,1.844,1.451,3.936,1.278,5.795
			C98.437,99.117,85.696,97.66,85.59,97.647c0.664-7.01,2.105-14.135,0.907-15.701c-1.688-2.207-3.267-2.672-3.45-2.66
			c-1.197,0.033-0.742-0.864-4.166,20.999c-1.18,7.532-3.48,22.102-3.48,22.102c2.072,0.944,4.456-0.78,6.675-1.051
			c0,0,1.646-11.673,3.016-19.829c18.385,0,22.017-10.934,21.917-17.306c-0.048-3.093-0.95-6.002-2.692-8.478
			c0.681-0.266,1.416-0.529,2.216-0.796c12.85-4.266,23.675,1.509,23.191,10.419c-0.52,9.598-7.532,11.771-12.633,12.377
			c1.037-8.213,1.774-16.312-2.163-17.227c-0.187-0.044-0.395-0.001-0.575,0.01c-1.181,0.034-0.732-1.765-4.112,19.817
			c-1.164,7.437-2.982,21.61-2.982,21.61c2.046,0.934,4.401-1,6.592-1.266c0,0,1.601-12.748,2.749-19.141
			C122.747,101.84,137.467,96.86,136.855,83.295z"/>
	</g>
</g>
</svg>
