<?xml version="1.0" encoding="utf-8"?>
<!-- Generator: Adobe Illustrator 17.0.0, SVG Export Plug-In . SVG Version: 6.00 Build 0)  -->
<!DOCTYPE svg PUBLIC "-//W3C//DTD SVG 1.1//EN" "http://www.w3.org/Graphics/SVG/1.1/DTD/svg11.dtd">
<svg version="1.1" id="Layer_1" xmlns="http://www.w3.org/2000/svg" xmlns:xlink="http://www.w3.org/1999/xlink" x="0px" y="0px"
	 width="362.279px" height="115.167px" viewBox="0 0 362.279 115.167" enable-background="new 0 0 362.279 115.167"
	 xml:space="preserve">
<g>
	<g>
		<path fill="#FFFFFF" d="M243.453,64.701c5.503-1.963-1.972-8.816,4.928-9.613c0.991-1.217,2.333-4.453,0.267-5.161
			c-4.566,1.788-8.01-0.77-9.784,3.958C237.804,56.709,238.301,62.317,243.453,64.701z"/>
		<path fill="#FFFFFF" d="M171.135,70.837c-2.889-1.556-7.297-1.512-9.063-1.567c-0.444,17.42-7.808,27.84-12.252,25.22
			c-5.218-3.079,1.921-14.259,1.72-23.997c-1.198-1.723-5.885-2.31-8.48-1.389c-2.324,0.826,2.162,0.314,0.09,7.951
			c-5.037,18.55-0.023,22.337,4.09,23.691c7.896,2.602,15.053-7.322,15.729-11.377c1.491,7.339,5.282,10.558,9.546,10.074
			C172.828,97.624,163.276,93.23,171.135,70.837z"/>
		<path fill="#FFFFFF" d="M333.954,66.717c-6.674,4.98-14.834,11.753-20.993,14.835c-9.44,4.721-18.262,1.398-19.462-4.484
			c-0.868-4.27,3.793-4.606,6.507-3.75c2.827,0.889,4.156,4.725,4.227,8.207c0.031,1.482,3.319,0.75,3.986-1.316
			c-0.242-8.328-4.852-11.846-9.796-12.339c-7.637-0.766-14.018,4.579-15.97,11.581c-1.728,6.213-1.964,13.601,4.657,17.967
			c7.843,5.166,18.858-0.029,20.622-10.284c15.075-4.162,17.138-7.261,26.087-11.235c5.474-2.431,15.458-2.702,16.696,8.561
			c0.157,1.424,4.339,2.133,5.233,0.694C360.297,77.852,353.865,51.859,333.954,66.717z M288.957,78.674
			c1.395,4.825,7.887,9.501,14.27,8.593C298.866,99.208,281.046,93.356,288.957,78.674z"/>
		<path fill="#FFFFFF" d="M279.269,70.619c-2.114-1.51-4.268-1.714-6.568-1.704c-3.63,2.488-6.664,10.144-9.782,21.767
			c-3.349-2.847-1.892-15.183-1.728-17.053c0.178-2.058-0.535-3.892-1.321-4.213c-0.923-0.379-3.911-1.206-5.455,0.19
			c-1.176,1.008-1.408,4.858-1.693,6.946c-1.245,9.126-5.802,17.899-8.98,16.779c-1.54-0.992-1.895-11.752,0.99-22.677
			c-2.392-1.236-6.283-2.818-8.893-0.735c-1.125,6.919-7.169,23.713-11.37,23.196c-3.609-2.847,3.257-21.763,0.383-24.78
			c-5.993-1.378-9.037,5.657-10.012,7.814c-5.259,11.648-6.909,16.992-7.78,15.657c-1.666-2.564,9.043-59.551,10.726-63.778
			c-1.812-2.371-4.614-3.667-8.811-2.854c-0.153,2.957-6.055,46.387-8.066,58.285c-0.264,1.576-0.549,3.021-1.067,5.022
			c-1.82,7.071-20.644,10.255-20.912-0.781c-0.359-14.828,9.505-15.684,12.265-14.949c4.583,1.222,2.712,8.026,0.111,6.99
			c-2.74-1.092-4.54,1.554-3.67,3.459c1.526,3.351,11.001,2.938,11.225-8.106c0.066-3.193-1.58-5.975-5.116-7.055
			c-4.263-1.305-18.112-1.077-21.158,15.574c-2.44,13.34,6.724,16.504,12.577,16.796c7.329,0.366,12.767-2.941,15.088-6.599
			c0.439,3.445,1.929,6.301,5.668,6.726c5.381,0.612,11.547-17.187,12.584-21.498c-1.268,6.949-0.683,13.908-0.259,15.995
			c1.502,7.396,8.427,4.04,9.607,3.372c6.821-3.863,9.454-14.182,10.059-13.955c-0.983,10.2,3.131,17.465,9.377,14.237
			c2.908-1.503,5.16-6.801,7.254-11.173c0.568,3.727,3.099,10.383,8.618,10.839c5.649,0.466,6.461-18.573,9.596-18.19
			c-1.166,7.395,0.406,15.086,4.349,17.839c1.992,1.393,4.902,0.976,5.272,0.315C272.376,89.821,280.284,71.344,279.269,70.619z"/>
		<path fill="#FFFFFF" d="M138.39,82.794c-0.457-10.202-10.749-17.985-28.666-13.533c-2.59,0.644-4.826,1.433-6.735,2.308
			c-4.902-3.297-12.546-4.651-22.923-2.516c5.756-34.988,10.47-54.691,10.649-54.922c0.403-0.52,1.308-3.61,0.259-4.748
			c0,0-8.364-0.902-11.644,0.422l-0.689,0.466c-0.591,1.114-0.764,4.924-2.4,11.929c-7.197,30.803-27.095,72.674-45.715,72.405
			c-17.066-0.246-15.131-39.806,6.378-39.18c11.067,0.323,7.173,13.25,3.542,15.106c0,0,0.615,3.345,6.717,2.993
			c0.663-0.038,1.809,0.393,3.373-2.069c2.904-4.565,5.947-22.862-11.245-24.269C17.039,45.367,7.101,62.74,7.14,74.505
			c0.038,11.313,6.836,24.736,21.861,25.991c15.523,1.297,31.721-18.671,44.037-49.851c0.736-1.86,2.429-6.841,2.952-8.327
			c0.383-1.084-0.142-2.712,1.542-2.61c-1.07,9.687-2.977,20.557-4.871,30.857c-14.245,5.491-10.909,12.656-7.227,12.65
			c2.008-0.002,2.609-0.995,2.609-0.995s-2.078-3.413,3.634-4.958c-0.271,5.385-3.492,20.586-2.845,21.359
			c0.222,0.264,5.81,1.236,7.477,0.089c1.171-0.806,0.353-2.78,0.346-4.486c-0.003-0.481,1.575-12.169,2.409-17.354
			c-2.111,0.088-1.349-2.362,5.668-3.018c5.829-0.546,9.86,0.06,12.598,1.297c-4.689,4.183-4.123,8.593-0.016,8.935
			c1.798,0.148,2.551-1.02,2.551-1.02s-1.673-1.972,1.471-4.597c1.139,1.793,1.402,3.828,1.235,5.636
			c-1.297,14.077-13.606,12.66-13.708,12.647c0.641-6.817,2.034-13.746,0.876-15.269c-1.631-2.146-3.156-2.599-3.333-2.587
			c-1.156,0.032-0.717-0.84-4.025,20.422c-1.14,7.325-3.362,21.494-3.362,21.494c2.002,0.918,4.305-0.759,6.449-1.022
			c0,0,1.59-11.352,2.914-19.284c17.762,0,21.271-10.633,21.174-16.83c-0.046-3.008-0.918-5.837-2.601-8.245
			c0.658-0.259,1.368-0.514,2.141-0.774c12.414-4.149,22.873,1.467,22.405,10.132c-0.502,9.334-7.277,11.447-12.205,12.037
			c1.002-7.987,1.714-15.863-2.09-16.753c-0.181-0.043-0.382-0.001-0.556,0.01c-1.141,0.033-0.707-1.716-3.973,19.272
			c-1.125,7.232-2.881,21.016-2.881,21.016c1.977,0.908,4.252-0.973,6.369-1.231c0,0,1.547-12.397,2.656-18.615
			C124.76,100.829,138.981,95.986,138.39,82.794z"/>
	</g>
</g>
</svg>
