<?xml version="1.0" encoding="utf-8"?>
<!-- Generator: Adobe Illustrator 16.0.0, SVG Export Plug-In . SVG Version: 6.00 Build 0)  -->
<!DOCTYPE svg PUBLIC "-//W3C//DTD SVG 1.1//EN" "http://www.w3.org/Graphics/SVG/1.1/DTD/svg11.dtd">
<svg version="1.1" id="Layer_1" xmlns="http://www.w3.org/2000/svg" xmlns:xlink="http://www.w3.org/1999/xlink" x="0px" y="0px"
	 width="21.812px" height="14px" viewBox="0 0 21.812 14" enable-background="new 0 0 21.812 14" xml:space="preserve">
<g>
	<g>
		<path fill-rule="evenodd" clip-rule="evenodd" fill="#28292D" d="M1,2h19.812c0.553,0,1-0.448,1-1c0-0.552-0.447-1-1-1H1
			C0.447,0,0,0.448,0,1C0,1.552,0.447,2,1,2z M20.812,6H1C0.447,6,0,6.448,0,7c0,0.553,0.447,1,1,1h19.812c0.553,0,1-0.447,1-1
			C21.812,6.448,21.365,6,20.812,6z M20.812,12H1c-0.553,0-1,0.448-1,1c0,0.553,0.447,1,1,1h19.812c0.553,0,1-0.447,1-1
			C21.812,12.448,21.365,12,20.812,12z"/>
	</g>
</g>
</svg>
