<?xml version="1.0" encoding="utf-8"?>
<!-- Generator: Adobe Illustrator 17.0.0, SVG Export Plug-In . SVG Version: 6.00 Build 0)  -->
<!DOCTYPE svg PUBLIC "-//W3C//DTD SVG 1.1//EN" "http://www.w3.org/Graphics/SVG/1.1/DTD/svg11.dtd">
<svg version="1.1" id="Layer_1" xmlns="http://www.w3.org/2000/svg" xmlns:xlink="http://www.w3.org/1999/xlink" x="0px" y="0px"
	 width="16.01px" height="16.009px" viewBox="0 0 16.01 16.009" enable-background="new 0 0 16.01 16.009" xml:space="preserve">
<g>
	<g>
		<path fill="#FFFFFF" d="M9.419,8.005l6.298-6.298c0.391-0.391,0.391-1.023,0-1.414c-0.391-0.39-1.023-0.391-1.414,0L8.005,6.591
			L1.707,0.293c-0.391-0.391-1.023-0.391-1.414,0c-0.39,0.391-0.391,1.023,0,1.415l6.298,6.297l-6.298,6.298
			c-0.391,0.391-0.39,1.023,0,1.414c0.391,0.391,1.023,0.391,1.414,0l6.298-6.298l6.298,6.297c0.391,0.392,1.023,0.391,1.414,0
			c0.391-0.391,0.391-1.023,0-1.414L9.419,8.005z"/>
	</g>
</g>
</svg>
