<?xml version="1.0" encoding="utf-8"?>
<!-- Generator: Adobe Illustrator 16.0.0, SVG Export Plug-In . SVG Version: 6.00 Build 0)  -->
<!DOCTYPE svg PUBLIC "-//W3C//DTD SVG 1.1//EN" "http://www.w3.org/Graphics/SVG/1.1/DTD/svg11.dtd">
<svg version="1.1" id="Layer_1" xmlns="http://www.w3.org/2000/svg" xmlns:xlink="http://www.w3.org/1999/xlink" x="0px" y="0px"
	 width="1600px" height="85.217px" viewBox="-396.999 855.783 1600 85.217" enable-background="new -396.999 855.783 1600 85.217"
	 xml:space="preserve">
<path fill="#FFFFFF" d="M1083.4,886.179c-27.027-8.037-53.607-17.846-81.736-21.773c-15.521-2.17-31.213-4.488-46.729-1.688
	c-19.244,3.477-38.289,8.135-57.316,12.709c-17.59,4.229-35.359,7.936-53.277,4.189c-11.078-2.318-21.766-6.918-32.316-11.254
	c-18.975-7.801-38.441-12.521-59.07-12.508c-104.146,0.082-208.297,0.693-312.441,1.16c-77.131,0.344-248.916-1.232-306.346,8.479
	c-30.411,5.145-60.578,11.982-90.624,19.059c-31.934,7.521-63.566,9.98-95.591,0.645c-15.06-4.393-30.57-4.418-45.992-1.23
	c-14.84,3.066-27.125,11.314-39.728,19.141c-8.695,5.4-17.985,9.945-27.334,14.148c-4.584,2.061-9.908,2.477-14.896,3.637
	c-7.667,0-15.333,0-23,0c-0.922-0.297-1.828-0.783-2.768-0.859c-15.187-1.26-30.048-4.381-43.75-10.941
	c-17.358-8.311-34.349-17.434-51.209-26.73c-30.017-16.557-61.385-27.814-96.274-26.469V941h1600V891.89
	c-6.273,0.738-12.541,1.5-18.816,2.211C1150.08,897.968,1116.484,896.017,1083.4,886.179z"/>
</svg>
