<?xml version="1.0" encoding="utf-8"?>
<!-- Generator: Adobe Illustrator 16.0.0, SVG Export Plug-In . SVG Version: 6.00 Build 0)  -->
<!DOCTYPE svg PUBLIC "-//W3C//DTD SVG 1.1//EN" "http://www.w3.org/Graphics/SVG/1.1/DTD/svg11.dtd">
<svg version="1.1" id="Layer_1" xmlns="http://www.w3.org/2000/svg" xmlns:xlink="http://www.w3.org/1999/xlink" x="0px" y="0px"
	 width="595.28px" height="841.89px" viewBox="0 0 595.28 841.89" enable-background="new 0 0 595.28 841.89" xml:space="preserve">
<path fill="#FFFFFF" d="M1083.4,886.18c-27.028-8.037-53.608-17.846-81.736-21.775c-15.522-2.17-31.213-4.488-46.729-1.686
	c-19.244,3.475-38.288,8.135-57.316,12.709c-17.591,4.227-35.36,7.934-53.277,4.188c-11.078-2.318-21.767-6.918-32.317-11.254
	c-18.975-7.799-38.442-12.521-59.07-12.506c-104.147,0.082-208.297,0.692-312.442,1.159c-77.131,0.344-248.916-1.233-306.346,8.479
	c-30.411,5.144-60.578,11.982-90.624,19.059c-31.934,7.521-63.566,9.98-95.591,0.643c-15.06-4.391-30.57-4.418-45.992-1.23
	c-14.84,3.066-27.125,11.314-39.728,19.141c-8.695,5.4-17.985,9.945-27.334,14.148c-4.584,2.061-9.908,2.477-14.896,3.637
	c-7.667,0-15.333,0-23,0c-0.922-0.297-1.828-0.783-2.768-0.859c-15.187-1.26-30.048-4.381-43.75-10.941
	c-17.358-8.311-34.349-17.434-51.209-26.732c-30.017-16.555-61.385-27.814-96.274-26.467V941h1600v-49.109
	c-6.272,0.738-12.541,1.5-18.816,2.211C1150.079,897.969,1116.484,896.018,1083.4,886.18z"/>
</svg>
