<svg width="725" height="1467" viewBox="0 0 725 1467" fill="none" xmlns="http://www.w3.org/2000/svg">
<path fill-rule="evenodd" clip-rule="evenodd" d="M16.3353 56.785C5 79.0318 5 108.155 5 166.4V232H2C0.895431 232 0 232.895 0 234V288C0 289.105 0.89543 290 2 290H5V337H2C0.895431 337 0 337.895 0 339V447C0 448.105 0.89543 449 2 449H5V474H2C0.895431 474 0 474.895 0 476V584C0 585.105 0.89543 586 2 586H5V1300.6C5 1358.85 5 1387.97 16.3353 1410.21C26.3062 1429.78 42.2161 1445.69 61.785 1455.66C84.0318 1467 113.155 1467 171.4 1467H553.6C611.845 1467 640.968 1467 663.215 1455.66C682.784 1445.69 698.694 1429.78 708.665 1410.21C720 1387.97 720 1358.85 720 1300.6V551H723C724.105 551 725 550.105 725 549V379C725 377.895 724.105 377 723 377H720V166.4C720 108.155 720 79.0318 708.665 56.785C698.694 37.2161 682.784 21.3062 663.215 11.3353C640.968 0 611.845 0 553.6 0H171.4C113.155 0 84.0318 0 61.785 11.3353C42.2161 21.3062 26.3062 37.2161 16.3353 56.785ZM23.5724 60.9629C13 81.7124 13 108.875 13 163.2V1303.8C13 1358.13 13 1385.29 23.5724 1406.04C32.8721 1424.29 47.7112 1439.13 65.9629 1448.43C86.7124 1459 113.875 1459 168.2 1459H556.8C611.125 1459 638.288 1459 659.037 1448.43C677.289 1439.13 692.128 1424.29 701.428 1406.04C712 1385.29 712 1358.13 712 1303.8V163.2C712 108.875 712 81.7124 701.428 60.9629C692.128 42.7112 677.289 27.8721 659.037 18.5724C638.288 8 611.125 8 556.8 8H168.2C113.875 8 86.7124 8 65.9629 18.5724C47.7112 27.8721 32.8721 42.7112 23.5724 60.9629ZM324 55C324 51.134 327.134 48 331 48H395C398.866 48 402 51.134 402 55C402 58.866 398.866 62 395 62H331C327.134 62 324 58.866 324 55ZM432 41C424.268 41 418 47.268 418 55C418 62.732 424.268 69 432 69C439.732 69 446 62.732 446 55C446 47.268 439.732 41 432 41Z" fill="#2A2F9D"/>
</svg>
