<svg width="663" height="1403" viewBox="0 0 663 1403" fill="none" xmlns="http://www.w3.org/2000/svg">
<path fill-rule="evenodd" clip-rule="evenodd" d="M654.818 686.688C657.416 685.494 659.474 684.548 662.456 683.178C662.509 681.396 662.574 679.669 662.638 677.979C662.771 674.456 662.898 671.095 662.9 667.734C662.933 622.054 662.922 576.374 662.911 530.694C662.911 530.392 662.911 530.09 662.911 529.789C662.913 526.755 662.914 523.717 662.708 520.696C662.617 519.352 662.286 518.024 661.988 516.823C661.862 516.319 661.742 515.837 661.648 515.385C659.917 514.626 658.448 513.982 657.004 513.349L654.818 512.39V482.895C654.818 479.852 654.805 476.808 654.793 473.764C654.764 466.804 654.735 459.844 654.857 452.887C654.908 449.93 654.85 446.969 654.791 443.994C654.66 437.339 654.528 430.62 655.625 423.755C660.716 423.514 663.111 420.913 662.798 416.047C662.777 415.715 662.825 415.381 662.825 415.047C662.823 410.504 662.823 405.961 662.822 401.419C662.82 381.955 662.817 362.491 662.751 343.027C662.746 341.704 662.415 340.382 662.115 339.189C661.986 338.673 661.863 338.182 661.775 337.725C660.176 336.968 658.805 336.319 657.447 335.676L654.818 334.431C654.818 330.163 654.821 326.181 654.817 322.2C654.798 304.515 654.78 286.829 654.763 269.144C654.71 213.807 654.656 158.469 654.538 103.132C654.514 92.1438 654.399 81.1574 652.427 70.245C646.221 35.8847 621.2 10.0505 586.857 2.99399C574.388 0.432079 561.702 0.0864558 549.044 0.0809538C401.384 0.0179314 253.724 0.011429 106.064 0.101461C96.4133 0.106963 86.7268 0.643154 77.1183 1.57199C34.3868 5.70396 8.92576 37.2857 3.50076 66.2225C1.60626 76.3266 0.852263 86.6998 0.321763 96.9885C-0.0793226 104.765 -0.0165879 112.566 0.0461363 120.365C0.069268 123.242 0.0923982 126.118 0.0922635 128.992C0.0737635 492.773 0.0607635 856.553 0.0562635 1220.33C0.056174 1225.05 0.0536679 1229.76 0.0511618 1234.47C0.0396602 1256.1 0.0281586 1277.73 0.250263 1299.36C0.349763 1309.01 0.925264 1318.69 2.02526 1328.28C5.82876 1361.43 30.3343 1389.49 62.5823 1397.94C74.2608 1401 86.2253 1401.88 98.2573 1401.9L112.812 1401.92C145.292 1401.98 177.772 1402.03 210.252 1402.03L226.005 1402.03C335.083 1402.01 444.159 1402 553.237 1401.85C562.541 1401.84 571.897 1401.19 581.139 1400.08C617.106 1395.78 645.735 1368.39 652.307 1332.7C654.256 1322.13 654.469 1311.48 654.525 1300.83C654.714 1264.48 654.8 1228.14 654.806 1191.79C654.825 1070.65 654.823 949.502 654.82 828.356C654.819 785.45 654.818 742.545 654.818 699.639V686.688ZM89 7.9997C44.2649 7.9997 8 44.2647 8 88.9997V1313C8 1357.73 44.2649 1394 89 1394H566C610.735 1394 647 1357.73 647 1313V88.9997C647 44.2646 610.735 7.9997 566 7.9997H89Z" fill="#175CBF"/>
</svg>
